<svg width="23" height="21" viewBox="0 0 23 21" fill="none" xmlns="http://www.w3.org/2000/svg">
<path d="M22.2 10.8999V16.6001C22.2 18.8001 20.4 20.6001 18.1 20.6001H4.5C2.3 20.6001 0.5 18.8001 0.5 16.6001V10.8C0.5 10.5 0.799976 10.2 1.09998 10.2C1.49998 10.2 1.69995 10.5 1.69995 10.8V16.6001C1.69995 18.1001 3 19.3 4.5 19.3H18.1C19.7 19.3 20.9 18.1001 20.9 16.6001V10.8999C20.9 10.5999 21.2 10.3 21.5 10.3C21.9 10.3 22.2 10.5999 22.2 10.8999Z" fill="white"/>
<path d="M6.9 11.7C6.7 11.5 6.7 11.1 6.9 10.8C7.2 10.6 7.60002 10.6 7.80002 10.8L10.6999 13.7V1.1001C10.6999 0.800098 11 0.5 11.3 0.5C11.7 0.5 12 0.800098 12 1.1001V13.7L14.8 10.8C15.1 10.6 15.4999 10.6 15.6999 10.8C15.9999 11.1 15.9999 11.5 15.6999 11.7L11.8 15.6001C11.6667 15.7334 11.5 15.8 11.3 15.8C11.1667 15.8 11.0333 15.7334 10.9 15.6001L6.9 11.7Z" fill="white"/>
</svg>
