<svg width="17" height="19" viewBox="0 0 17 19" fill="none" xmlns="http://www.w3.org/2000/svg">
<path d="M8.69995 8.6001C8.79995 8.7001 9.60005 11.6001 9.30005 18.1001C9.30005 18.3001 9.2 18.3999 9 18.3999C8.9 18.3999 8.69995 18.3001 8.69995 18.1001C8.99995 11.7001 8.19998 8.80005 8.09998 8.80005C8.09998 8.60005 8.20002 8.4999 8.40002 8.3999C8.50002 8.3999 8.69995 8.5001 8.69995 8.6001Z" fill="#0046CB"/>
<path d="M16.9001 10.2C16.9001 10.4 16.8 10.5 16.6 10.5C16.5 10.5 16.3001 10.4 16.3001 10.2C16.2001 9.09995 15.9001 6.89995 15.4001 5.69995C14.2001 2.89995 11.5001 1.1001 8.40007 1.1001C7.40007 1.1001 6.43338 1.29995 5.50004 1.69995C4.96671 1.89995 4.46671 2.16667 4.00004 2.5C3.90004 2.6 3.70002 2.4999 3.60002 2.3999C3.50002 2.1999 3.6 2 3.7 2C4.16666 1.66667 4.70009 1.36676 5.30009 1.1001C6.30009 0.700098 7.3334 0.5 8.40007 0.5C11.7001 0.5 14.7 2.5 16 5.5C16.5 6.7 16.8001 8.69995 16.9001 10.2Z" fill="#0046CB"/>
<path d="M1.19995 12.6001C1.29995 12.7001 1.19999 12.9 0.999995 12.9C0.999995 12.9666 0.966686 13 0.900019 13C0.800019 13 0.699946 12.9 0.699946 12.7C-0.900054 7.6 0.800019 4.60005 2.40002 3.00005C2.50002 2.90005 2.70004 2.90005 2.80004 3.00005C2.90004 3.10005 2.90004 3.29995 2.80004 3.39995C0.600043 5.59995 0.0999457 8.70015 1.19995 12.6001Z" fill="#0046CB"/>
<path d="M14.5999 6.8999C15.1999 8.8999 15.1999 12.1001 15.1999 15.1001C15.1999 15.3001 15 15.3999 14.9 15.3999C14.7 15.3999 14.5999 15.2001 14.5999 15.1001C14.5999 12.2001 14.6 9.0001 14 7.1001C13.3 4.9001 10.7999 2.9999 8.59993 2.8999C7.79993 2.8999 6.99991 3.06657 6.19991 3.3999C3.49991 4.4999 2.09998 7.50005 2.89998 10.3C2.96665 10.6334 3.03327 10.9667 3.09993 11.3C3.19993 12.1 3.19991 13.4 3.19991 15.7C3.19991 15.9 3.09998 16 2.89998 16C2.79998 16 2.59993 15.9 2.59993 15.7C2.59993 13.5 2.59996 12.0999 2.49996 11.3999C2.43329 11.0666 2.36667 10.7332 2.3 10.3999C1.4 7.2999 2.99996 4.10005 5.99996 2.80005C6.86662 2.46672 7.76657 2.30005 8.69991 2.30005C11.0999 2.40005 13.6999 4.4999 14.5999 6.8999Z" fill="#0046CB"/>
<path d="M12.6 6.8999C13.4 8.7999 13.5 11.5001 13.3 16.6001C13.3 16.8001 13.2 16.8999 13 16.8999C12.8 16.8999 12.7 16.8001 12.7 16.6001C12.9 11.7001 12.8 8.89995 12.1 7.19995C11.5 5.69995 10 4.80005 8.40002 4.80005C8.13336 4.80005 7.86664 4.80005 7.59998 4.80005C7.39998 4.90005 7.29995 4.8001 7.19995 4.6001C7.19995 4.4001 7.3 4.30005 7.5 4.30005C7.76667 4.16672 8.06669 4.1001 8.40002 4.1001C10.3 4.1001 11.9 5.1999 12.6 6.8999Z" fill="#0046CB"/>
<path d="M4.69998 10.1001C4.79998 10.1001 5.40005 12.4 5.40005 16C5.40005 16.2 5.2 16.3001 5.1 16.3001C4.9 16.3001 4.80008 16.2 4.80008 16C4.80008 12.5 4.2 10.2 4.1 10.2C3.6 8.2 4.30008 6.10005 5.80008 5.00005C6.00008 4.90005 6.20008 4.90005 6.30008 5.00005C6.40008 5.20005 6.29998 5.40005 6.19998 5.50005C4.79998 6.40005 4.19998 8.30015 4.69998 10.1001Z" fill="#0046CB"/>
<path d="M11.5 16C11.5 16.5 11.5 17.1 11.5 17.5C11.5 17.7 11.3 17.8 11.2 17.8C11 17.8 10.9 17.7 10.9 17.5C10.9 17.1 10.9 16.5 10.9 16C10.8 15.6 10.8 15.3001 10.8 15.1001C10.8 14.9001 11 14.8 11.1 14.8C11.3 14.8 11.4 14.9001 11.4 15.1001C11.4 15.3001 11.5 15.6 11.5 16Z" fill="#0046CB"/>
<path d="M10.6999 7.80005C11.2999 9.20005 11.4999 11.7001 11.4999 13.6001C11.4999 13.7001 11.3999 13.8999 11.1999 13.8999C10.9999 13.8999 10.9 13.7001 10.9 13.6001C10.9 11.8001 10.6999 9.3 10.0999 8C9.79992 7.3 9.19997 6.8999 8.39997 6.8999C8.19997 6.8999 7.96656 6.93333 7.6999 7C6.8999 7.4 6.3999 8.3999 6.6999 9.3999C6.9999 10.1999 7.1999 14.3 7.1999 17.5C7.1999 17.7 7.09997 17.8 6.89997 17.8C6.69997 17.8 6.59992 17.7 6.59992 17.5C6.59992 13.9 6.3999 10.3001 6.1999 9.6001C5.6999 8.3001 6.29995 7 7.49995 6.5C7.83328 6.36667 8.1333 6.30005 8.39997 6.30005C9.39997 6.30005 10.2999 6.90005 10.6999 7.80005Z" fill="#0046CB"/>
</svg>
