<svg width="23" height="21" viewBox="0 0 23 21" fill="none" xmlns="http://www.w3.org/2000/svg">
<path fill-rule="evenodd" clip-rule="evenodd" d="M22.7 6.80005C22.7 8.50005 22 9.99995 20.8 11.2L11.8 20.2C11.6667 20.3333 11.5 20.3999 11.3 20.3999C11.1667 20.3999 11.0334 20.3333 10.9 20.2L1.80005 11.2C0.700049 9.99995 0 8.50005 0 6.80005C0 5.10005 0.600049 3.50005 1.80005 2.30005C3.00005 1.20005 4.60005 0.5 6.30005 0.5C7.90005 0.5 9.49995 1.20005 10.7 2.30005L11.3 3L12 2.3999C13.1 1.1999 14.7 0.5 16.4 0.5C18.1 0.5 19.6 1.20005 20.8 2.30005C22 3.50005 22.7 5.10005 22.7 6.80005ZM21.4 6.80005C21.4 5.50005 20.9 4.20005 19.9 3.30005C19 2.30005 17.7 1.80005 16.4 1.80005C15.1 1.80005 13.8 2.30005 12.9 3.30005L11.8 4.30005C11.5 4.60005 11.1 4.60005 10.9 4.30005L9.80005 3.30005C8.90005 2.30005 7.60005 1.80005 6.30005 1.80005C4.90005 1.80005 3.70005 2.30005 2.80005 3.30005C1.80005 4.20005 1.30005 5.40005 1.30005 6.80005C1.30005 8.10005 1.80005 9.40005 2.80005 10.3L11.3 18.8999L19.9 10.3C20.9 9.40005 21.4 8.10005 21.4 6.80005Z" fill="white"/>
</svg>
