<svg width="15" height="19" viewBox="0 0 15 19" fill="none" xmlns="http://www.w3.org/2000/svg">
<path fill-rule="evenodd" clip-rule="evenodd" d="M8.59998 11.8999C8.59998 12.4999 8.19998 13 7.59998 13.2V15.1001C7.59998 15.3001 7.50005 15.5 7.30005 15.5C7.10005 15.5 6.90002 15.3001 6.90002 15.1001V13.2C6.40002 13 5.90002 12.4999 5.90002 11.8999C5.90002 11.1999 6.50005 10.6001 7.30005 10.6001C8.00005 10.6001 8.59998 11.1999 8.59998 11.8999ZM7.90002 11.8999C7.90002 11.5999 7.60005 11.3 7.30005 11.3C6.90005 11.3 6.59998 11.5999 6.59998 11.8999C6.59998 12.2999 6.90005 12.5 7.30005 12.5C7.60005 12.5 7.90002 12.2999 7.90002 11.8999Z" fill="#FD7D86"/>
<path fill-rule="evenodd" clip-rule="evenodd" d="M14.1 8.8999V16.2C14.1 17.4 13.1 18.3 12 18.3H2.59998C1.39998 18.3 0.5 17.4 0.5 16.2V8.8999C0.5 7.6999 1.39998 6.80005 2.59998 6.80005H3.40002V4.3999C3.40002 2.2999 5.10005 0.5 7.30005 0.5C9.50005 0.5 11.2 2.2999 11.2 4.3999V6.80005H12C13.1 6.80005 14.1 7.6999 14.1 8.8999ZM4.09998 6.80005H5V4.3999C5 3.1999 6.10005 2.19995 7.30005 2.19995C8.50005 2.19995 9.5 3.1999 9.5 4.3999V6.80005H10.5V4.3999C10.5 2.5999 9.10005 1.19995 7.30005 1.19995C5.50005 1.19995 4.09998 2.5999 4.09998 4.3999V6.80005ZM7.30005 2.8999C6.40005 2.8999 5.69995 3.5999 5.69995 4.3999V6.80005H8.80005V4.3999C8.80005 3.5999 8.10005 2.8999 7.30005 2.8999ZM13.4 8.8999C13.4 8.0999 12.8 7.5 12 7.5H2.59998C1.79998 7.5 1.19995 8.0999 1.19995 8.8999V16.2C1.19995 17 1.79998 17.6001 2.59998 17.6001H12C12.8 17.6001 13.4 17 13.4 16.2V8.8999Z" fill="#FD7D86"/>
<path d="M12.9 10.5V13.6001C12.9 13.8001 12.7 14 12.6 14C12.4 14 12.2 13.8001 12.2 13.6001V10.5C12.2 10.4 12.4 10.2 12.6 10.2C12.7 10.2 12.9 10.4 12.9 10.5Z" fill="#FD7D86"/>
<path d="M12.5 9C12.1 9 12.1 9.69995 12.5 9.69995C13 9.69995 13 9 12.5 9Z" fill="#FD7D86"/>
</svg>
