<svg width="145" height="287" viewBox="0 0 145 287" fill="none" xmlns="http://www.w3.org/2000/svg">
<path opacity="0.2" d="M72.7 286.8C36.2 286.8 6.69995 284.7 6.69995 282C6.69995 279.4 36.2 277.2 72.7 277.2C109.2 277.2 138.7 279.4 138.7 282C138.7 284.7 109.2 286.8 72.7 286.8Z" fill="black"/>
<path d="M5.59998 21.1001C5.59998 11.5001 13.5 3.6001 23.1 3.6001H122C131.7 3.6001 139.5 11.5001 139.5 21.1001V264.7C139.5 274.4 131.7 282.2 122 282.2H23.1C13.5 282.2 5.59998 274.4 5.59998 264.7V21.1001Z" fill="white" stroke="#B8B8B8" stroke-width="6"/>
<path d="M3.30005 42.3999C3.30005 40.7999 4.49998 39.6001 6.09998 39.6001V49.6001C4.49998 49.6001 3.30005 48.3 3.30005 46.7V42.3999Z" fill="white" stroke="#B8B8B8" stroke-width="6"/>
<path d="M3.30005 64.2C3.30005 62.6 4.49998 61.3 6.09998 61.3V80.5C4.49998 80.5 3.30005 79.2001 3.30005 77.6001V64.2Z" fill="white" stroke="#B8B8B8" stroke-width="6"/>
<path d="M3.30005 89.5C3.30005 87.9 4.49998 86.6001 6.09998 86.6001V105.8C4.49998 105.8 3.30005 104.5 3.30005 102.9V89.5Z" fill="white" stroke="#B8B8B8" stroke-width="6"/>
<path d="M139.1 67.8999C140.6 67.8999 141.9 69.2 141.9 70.7V96.1001C141.9 97.7001 140.6 99 139.1 99V67.8999Z" fill="white" stroke="#B8B8B8" stroke-width="6"/>
<path d="M16.6 27.8999C16.6 25.0999 18.9 22.8999 21.6 22.8999H92C94.8 22.8999 97 25.0999 97 27.8999V70C97 72.7 94.8 75 92 75H21.6C18.9 75 16.6 72.7 16.6 70V27.8999Z" fill="#EFEFEF"/>
<path d="M16.6 87.3999C16.6 85.9999 17.8 84.8999 19.1 84.8999H57.8C59.2001 84.8999 60.3 85.9999 60.3 87.3999V93.3C60.3 94.7 59.2001 95.8 57.8 95.8H19.1C17.8 95.8 16.6 94.7 16.6 93.3V87.3999Z" fill="#EFEFEF"/>
<path d="M16.6 142.9C16.6 141.6 17.8 140.4 19.1 140.4H57.8C59.2001 140.4 60.3 141.6 60.3 142.9V148.4C60.3 149.8 59.2001 150.9 57.8 150.9H19.1C17.8 150.9 16.6 149.8 16.6 148.4V142.9Z" fill="#EFEFEF"/>
<path d="M38 110.2C38 108.8 39.1 107.7 40.5 107.7H59.8C61.2 107.7 62.3 108.8 62.3 110.2C62.3 111.6 61.2 112.7 59.8 112.7H40.5C39.1 112.7 38 111.6 38 110.2Z" fill="#EFEFEF"/>
<path d="M100 110.2C100 108.8 101.1 107.7 102.5 107.7H121.8C123.2 107.7 124.3 108.8 124.3 110.2C124.3 111.6 123.2 112.7 121.8 112.7H102.5C101.1 112.7 100 111.6 100 110.2Z" fill="#EFEFEF"/>
<path d="M38 118.1C38 116.8 39.1 115.6 40.5 115.6H47.4C48.8 115.6 49.9 116.8 49.9 118.1V121.1C49.9 122.5 48.8 123.6 47.4 123.6H40.5C39.1 123.6 38 122.5 38 121.1V118.1Z" fill="#EFEFEF"/>
<path d="M99 118.1C99 116.8 100.1 115.6 101.5 115.6H108.9C110.3 115.6 111.4 116.8 111.4 118.1V121.1C111.4 122.5 110.3 123.6 108.9 123.6H101.5C100.1 123.6 99 122.5 99 121.1V118.1Z" fill="#EFEFEF"/>
<path d="M16.6 110.2C16.6 108.8 17.8 107.7 19.1 107.7H29.5C30.9 107.7 32 108.8 32 110.2V121.1C32 122.5 30.9 123.6 29.5 123.6H19.1C17.8 123.6 16.6 122.5 16.6 121.1V110.2Z" fill="#EFEFEF"/>
<path d="M16.6 159.8C16.6 158.4 17.8 157.3 19.1 157.3H37.5C38.9 157.3 40 158.4 40 159.8V186.1C40 187.5 38.9 188.6 37.5 188.6H19.1C17.8 188.6 16.6 187.5 16.6 186.1V159.8Z" fill="#F6F6F6"/>
<path d="M46.4 159.8C46.4 158.4 47.5 157.3 48.9 157.3H67.2C68.6 157.3 69.7 158.4 69.7 159.8V186.1C69.7 187.5 68.6 188.6 67.2 188.6H48.9C47.5 188.6 46.4 187.5 46.4 186.1V159.8Z" fill="#F6F6F6"/>
<path d="M48.9 161.8C48.9 161 49.6 160.3 50.4 160.3H64.8C65.6 160.3 66.3 161 66.3 161.8V170.2C66.3 171 65.6 171.7 64.8 171.7H50.4C49.6 171.7 48.9 171 48.9 170.2V161.8Z" fill="#EBEBEB"/>
<path d="M48.9 174.9C48.9 174 49.7 173.2 50.6 173.2H55.1C56.1 173.2 56.8 174 56.8 174.9C56.8 175.9 56.1 176.7 55.1 176.7H50.6C49.7 176.7 48.9 175.9 48.9 174.9Z" fill="#EBEBEB"/>
<path d="M48.9 179.4C48.9 178.4 49.7 177.7 50.6 177.7H64.5C65.5 177.7 66.3 178.4 66.3 179.4C66.3 180.4 65.5 181.1 64.5 181.1H50.6C49.7 181.1 48.9 180.4 48.9 179.4Z" fill="#EBEBEB"/>
<path d="M48.9 184.1C48.9 183.3 49.6 182.6 50.4 182.6H59.3C60.1 182.6 60.8 183.3 60.8 184.1C60.8 184.9 60.1 185.6 59.3 185.6H50.4C49.6 185.6 48.9 184.9 48.9 184.1Z" fill="#EBEBEB"/>
<path d="M46.4 196.5C46.4 195.2 47.5 194 48.9 194H67.2C68.6 194 69.7 195.2 69.7 196.5V222.8C69.7 224.2 68.6 225.3 67.2 225.3H48.9C47.5 225.3 46.4 224.2 46.4 222.8V196.5Z" fill="#F6F6F6"/>
<path d="M48.9 198C48.9 197.2 49.6 196.5 50.4 196.5H64.8C65.6 196.5 66.3 197.2 66.3 198V206.9C66.3 207.8 65.6 208.4 64.8 208.4H50.4C49.6 208.4 48.9 207.8 48.9 206.9V198Z" fill="#EBEBEB"/>
<path d="M48.9 211.2C48.9 210.2 49.7 209.4 50.6 209.4H55.1C56.1 209.4 56.8 210.2 56.8 211.2C56.8 212.1 56.1 212.9 55.1 212.9H50.6C49.7 212.9 48.9 212.1 48.9 211.2Z" fill="#EBEBEB"/>
<path d="M48.9 215.9C48.9 215 49.6 214.4 50.4 214.4H64.8C65.6 214.4 66.3 215 66.3 215.9C66.3 216.7 65.6 217.4 64.8 217.4H50.4C49.6 217.4 48.9 216.7 48.9 215.9Z" fill="#EBEBEB"/>
<path d="M48.9 220.6C48.9 219.6 49.7 218.8 50.6 218.8H59.1C60 218.8 60.8 219.6 60.8 220.6C60.8 221.5 60 222.3 59.1 222.3H50.6C49.7 222.3 48.9 221.5 48.9 220.6Z" fill="#EBEBEB"/>
<path d="M16.6 196.5C16.6 195.2 17.8 194 19.1 194H37.5C38.9 194 40 195.2 40 196.5V222.8C40 224.2 38.9 225.3 37.5 225.3H19.1C17.8 225.3 16.6 224.2 16.6 222.8V196.5Z" fill="#F6F6F6"/>
<path d="M19.6 198C19.6 197.2 20.3 196.5 21.1 196.5H35C35.8 196.5 36.5 197.2 36.5 198V206.9C36.5 207.8 35.8 208.4 35 208.4H21.1C20.3 208.4 19.6 207.8 19.6 206.9V198Z" fill="#EBEBEB"/>
<path d="M19.6 211.2C19.6 210.2 20.4 209.4 21.4 209.4H24.8C25.8 209.4 26.6 210.2 26.6 211.2C26.6 212.1 25.8 212.9 24.8 212.9H21.4C20.4 212.9 19.6 212.1 19.6 211.2Z" fill="#EBEBEB"/>
<path d="M19.6 215.9C19.6 215 20.3 214.4 21.1 214.4H35C35.8 214.4 36.5 215 36.5 215.9C36.5 216.7 35.8 217.4 35 217.4H21.1C20.3 217.4 19.6 216.7 19.6 215.9Z" fill="#EBEBEB"/>
<path d="M19.6 220.6C19.6 219.6 20.4 218.8 21.4 218.8H29.3C30.3 218.8 31 219.6 31 220.6C31 221.5 30.3 222.3 29.3 222.3H21.4C20.4 222.3 19.6 221.5 19.6 220.6Z" fill="#EBEBEB"/>
<path d="M75.2 159.8C75.2 158.4 76.3 157.3 77.7 157.3H96C97.4 157.3 98.5 158.4 98.5 159.8V186.1C98.5 187.5 97.4 188.6 96 188.6H77.7C76.3 188.6 75.2 187.5 75.2 186.1V159.8Z" fill="#F6F6F6"/>
<path d="M78.7 161.8C78.7 161 79.3 160.3 80.2 160.3H94.5C95.4 160.3 96 161 96 161.8V170.2C96 171 95.4 171.7 94.5 171.7H80.2C79.3 171.7 78.7 171 78.7 170.2V161.8Z" fill="#EBEBEB"/>
<path d="M78.7 174.9C78.7 174 79.5 173.2 80.4 173.2H83.9C84.8 173.2 85.6 174 85.6 174.9C85.6 175.9 84.8 176.7 83.9 176.7H80.4C79.5 176.7 78.7 175.9 78.7 174.9Z" fill="#EBEBEB"/>
<path d="M78.7 179.4C78.7 178.4 79.5 177.7 80.4 177.7H94.3C95.3 177.7 96 178.4 96 179.4C96 180.4 95.3 181.1 94.3 181.1H80.4C79.5 181.1 78.7 180.4 78.7 179.4Z" fill="#EBEBEB"/>
<path d="M78.7 184.1C78.7 183.3 79.3 182.6 80.2 182.6H88.1C88.9 182.6 89.6 183.3 89.6 184.1C89.6 184.9 88.9 185.6 88.1 185.6H80.2C79.3 185.6 78.7 184.9 78.7 184.1Z" fill="#EBEBEB"/>
<path d="M75.2 196.5C75.2 195.2 76.3 194 77.7 194H96C97.4 194 98.5 195.2 98.5 196.5V222.8C98.5 224.2 97.4 225.3 96 225.3H77.7C76.3 225.3 75.2 224.2 75.2 222.8V196.5Z" fill="#F6F6F6"/>
<path d="M78.7 198C78.7 197.2 79.3 196.5 80.2 196.5H94.5C95.4 196.5 96 197.2 96 198V206.9C96 207.8 95.4 208.4 94.5 208.4H80.2C79.3 208.4 78.7 207.8 78.7 206.9V198Z" fill="#EBEBEB"/>
<path d="M78.7 211.2C78.7 210.2 79.5 209.4 80.4 209.4H83.9C84.8 209.4 85.6 210.2 85.6 211.2C85.6 212.1 84.8 212.9 83.9 212.9H80.4C79.5 212.9 78.7 212.1 78.7 211.2Z" fill="#EBEBEB"/>
<path d="M78.7 215.9C78.7 215 79.3 214.4 80.2 214.4H94.6C95.4 214.4 96 215 96 215.9C96 216.7 95.4 217.4 94.6 217.4H80.2C79.3 217.4 78.7 216.7 78.7 215.9Z" fill="#EBEBEB"/>
<path d="M78.7 220.6C78.7 219.6 79.5 218.8 80.4 218.8H87.9C88.8 218.8 89.6 219.6 89.6 220.6C89.6 221.5 88.8 222.3 87.9 222.3H80.4C79.5 222.3 78.7 221.5 78.7 220.6Z" fill="#EBEBEB"/>
<path d="M105 159.8C105 158.4 106.1 157.3 107.5 157.3H125.8C127.2 157.3 128.3 158.4 128.3 159.8V186.1C128.3 187.5 127.2 188.6 125.8 188.6H107.5C106.1 188.6 105 187.5 105 186.1V159.8Z" fill="#F6F6F6"/>
<path d="M107.9 161.8C107.9 161 108.6 160.3 109.4 160.3H123.8C124.6 160.3 125.3 161 125.3 161.8V170.2C125.3 171 124.6 171.7 123.8 171.7H109.4C108.6 171.7 107.9 171 107.9 170.2V161.8Z" fill="#EBEBEB"/>
<path d="M107.9 174.9C107.9 174 108.7 173.2 109.7 173.2H113.7C114.6 173.2 115.4 174 115.4 174.9C115.4 175.9 114.6 176.7 113.7 176.7H109.7C108.7 176.7 107.9 175.9 107.9 174.9Z" fill="#EBEBEB"/>
<path d="M107.9 179.4C107.9 178.4 108.7 177.7 109.7 177.7H123.6C124.5 177.7 125.3 178.4 125.3 179.4C125.3 180.4 124.5 181.1 123.6 181.1H109.7C108.7 181.1 107.9 180.4 107.9 179.4Z" fill="#EBEBEB"/>
<path d="M107.9 184.1C107.9 183.3 108.6 182.6 109.4 182.6H118.4C119.2 182.6 119.9 183.3 119.9 184.1C119.9 184.9 119.2 185.6 118.4 185.6H109.4C108.6 185.6 107.9 184.9 107.9 184.1Z" fill="#EBEBEB"/>
<path d="M105 196.5C105 195.2 106.1 194 107.5 194H125.8C127.2 194 128.3 195.2 128.3 196.5V222.8C128.3 224.2 127.2 225.3 125.8 225.3H107.5C106.1 225.3 105 224.2 105 222.8V196.5Z" fill="#F6F6F6"/>
<path d="M107.9 198C107.9 197.2 108.6 196.5 109.4 196.5H123.8C124.6 196.5 125.3 197.2 125.3 198V206.9C125.3 207.8 124.6 208.4 123.8 208.4H109.4C108.6 208.4 107.9 207.8 107.9 206.9V198Z" fill="#EBEBEB"/>
<path d="M107.9 211.2C107.9 210.2 108.7 209.4 109.7 209.4H113.7C114.6 209.4 115.4 210.2 115.4 211.2C115.4 212.1 114.6 212.9 113.7 212.9H109.7C108.7 212.9 107.9 212.1 107.9 211.2Z" fill="#EBEBEB"/>
<path d="M107.9 215.9C107.9 215 108.6 214.4 109.4 214.4H123.8C124.6 214.4 125.3 215 125.3 215.9C125.3 216.7 124.6 217.4 123.8 217.4H109.4C108.6 217.4 107.9 216.7 107.9 215.9Z" fill="#EBEBEB"/>
<path d="M107.9 220.6C107.9 219.6 108.7 218.8 109.7 218.8H118.1C119.1 218.8 119.9 219.6 119.9 220.6C119.9 221.5 119.1 222.3 118.1 222.3H109.7C108.7 222.3 107.9 221.5 107.9 220.6Z" fill="#EBEBEB"/>
<path d="M78.2 110.2C78.2 108.8 79.3 107.7 80.7 107.7H91.1C92.4 107.7 93.6 108.8 93.6 110.2V121.1C93.6 122.5 92.4 123.6 91.1 123.6H80.7C79.3 123.6 78.2 122.5 78.2 121.1V110.2Z" fill="#EFEFEF"/>
<path d="M16.6 100.3C16.6 99.2 17.5 98.3 18.6 98.3H125.3C126.4 98.3 127.3 99.2 127.3 100.3C127.3 101.4 126.4 102.2 125.3 102.2H18.6C17.5 102.2 16.6 101.4 16.6 100.3Z" fill="#EFEFEF"/>
<path d="M16.6 100.3C16.6 99.2 17.5 98.3 18.6 98.3H89.6C90.7 98.3 91.6 99.2 91.6 100.3C91.6 101.4 90.7 102.2 89.6 102.2H18.6C17.5 102.2 16.6 101.4 16.6 100.3Z" fill="#E1E1E1"/>
<path d="M105 27.8999C105 25.0999 107.2 22.8999 110 22.8999H136.2V75H110C107.2 75 105 72.7 105 70V27.8999Z" fill="#F3F3F3"/>
<path d="M71.7 267C64.6 267 58.8 261.3 58.8 254.3C58.8 247.3 64.6 241.7 71.7 241.7C78.9 241.7 84.6 247.3 84.6 254.3C84.6 261.3 78.9 267 71.7 267Z" fill="white" stroke="#D9D9D9" stroke-width="2"/>
<path d="M68.6 254.4H75.8" stroke="#707070" stroke-width="3" stroke-linecap="round"/>
<path d="M72.2 250.7V258" stroke="#707070" stroke-width="3" stroke-linecap="round"/>
<path d="M46.2 261C42.7 261 40 258.3 40 254.8C40 251.4 42.7 248.6 46.2 248.6C49.6 248.6 52.4 251.4 52.4 254.8C52.4 258.3 49.6 261 46.2 261Z" fill="#E6E6E6"/>
<path d="M117.6 261C114.2 261 111.4 258.3 111.4 254.8C111.4 251.4 114.2 248.6 117.6 248.6C121.1 248.6 123.8 251.4 123.8 254.8C123.8 258.3 121.1 261 117.6 261Z" fill="#E6E6E6"/>
<path d="M26.8 261C23.4 261 20.6 258.3 20.6 254.8C20.6 251.4 23.4 248.6 26.8 248.6C30.3 248.6 33 251.4 33 254.8C33 258.3 30.3 261 26.8 261Z" fill="#E6E6E6"/>
<path d="M98.3 261C94.8 261 92.1 258.3 92.1 254.8C92.1 251.4 94.8 248.6 98.3 248.6C101.7 248.6 104.5 251.4 104.5 254.8C104.5 258.3 101.7 261 98.3 261Z" fill="#E6E6E6"/>
<path d="M24.5 173.5H31.8" stroke="#D9D9D9" stroke-width="3" stroke-linecap="round"/>
<path d="M28.2 169.8V177.1" stroke="#D9D9D9" stroke-width="3" stroke-linecap="round"/>
</svg>
