<svg width="146" height="289" viewBox="0 0 146 289" fill="none" xmlns="http://www.w3.org/2000/svg">
<path opacity="0.2" d="M72.9 289C36.2 289 6.5 286.8 6.5 284.2C6.5 281.5 36.2 279.3 72.9 279.3C109.7 279.3 139.4 281.5 139.4 284.2C139.4 286.8 109.7 289 72.9 289Z" fill="black"/>
<path d="M5.40002 21.1001C5.40002 11.5001 13.2 3.6001 22.9 3.6001H122.8C132.5 3.6001 140.3 11.5001 140.3 21.1001V266.9C140.3 276.5 132.5 284.4 122.8 284.4H22.9C13.2 284.4 5.40002 276.5 5.40002 266.9V21.1001Z" fill="white" stroke="#B8B8B8" stroke-width="6"/>
<path d="M3 42.7C3 41.1 4.30002 39.8 5.90002 39.8V50C4.30002 50 3 48.7001 3 47.1001V42.7Z" fill="white" stroke="#B8B8B8" stroke-width="6"/>
<path d="M3 64.6001C3 63.0001 4.30002 61.7 5.90002 61.7V81C4.30002 81 3 79.7001 3 78.1001V64.6001Z" fill="white" stroke="#B8B8B8" stroke-width="6"/>
<path d="M3 90.2C3 88.6 4.30002 87.3 5.90002 87.3V106.6C4.30002 106.6 3 105.3 3 103.7V90.2Z" fill="white" stroke="#B8B8B8" stroke-width="6"/>
<path d="M139.9 68.3999C141.5 68.3999 142.7 69.7 142.7 71.3V96.8C142.7 98.4 141.5 99.7 139.9 99.7V68.3999Z" fill="white" stroke="#474757" stroke-width="6"/>
<path d="M14 23C14 20.2 16.2 18 19 18H126C128.8 18 131 20.2 131 23V95C131 97.8 128.8 100 126 100H19C16.2 100 14 97.8 14 95V23Z" fill="#F6F6F6"/>
<path d="M14 114C14 112.3 15.3 111 17 111H67C68.7 111 70 112.3 70 114V125C70 126.7 68.7 128 67 128H17C15.3 128 14 126.7 14 125V114Z" fill="#F6F6F6"/>
<path d="M75 114C75 112.3 76.3 111 78 111H128C129.7 111 131 112.3 131 114V125C131 126.7 129.7 128 128 128H78C76.3 128 75 126.7 75 125V114Z" fill="#F6F6F6"/>
<path d="M37.8 56.2C37.8 38 52.6 23.2 70.8 23.2H75.2C93.4 23.2 108.2 38 108.2 56.2V60.6001C108.2 78.8001 93.4 93.6001 75.2 93.6001H70.8C52.6 93.6001 37.8 78.8001 37.8 60.6001V56.2Z" stroke="#E4E4E4" stroke-width="15"/>
<path d="M110.7 67.7C108.2 79.3 111.8 77.2 93.3 92.7C78.1 102.5 58.6 97.3001 50 91.6001C38.1 83.8001 36 65.1001 36 65.1001L73.8 55.3C73.8 55.3 110.8 67.6 110.7 67.7Z" fill="#F6F6F6"/>
<path d="M63.1 75.8001C67.1 75.8001 70 72.9 70 68.9C70 64.9 67.2 61.9 63.4 61.9C62 61.9 60.6 62.4002 59.8 63.1002H59.6L60.4 57.0001H69V54.8001H58.3L57 65.0001L59.4 65.3001C60.2 64.6001 61.7 64.2 63 64.2C65.6 64.2 67.5 66.2 67.5 68.9C67.5 71.6 65.7 73.6002 63.1 73.6002C61 73.6002 59.3 72.2001 59.1 70.3001H56.7C56.8 73.5001 59.6 75.8001 63.1 75.8001ZM80.6 54.5001C76.4 54.4001 73.6 57.6 73.6 61.4C73.6 65.4 76.6 68.3001 80.2 68.3001C82.3 68.3001 84.1 67.2001 85.3 65.5001H85.4C85.4 70.6001 83.4 73.6002 80.2 73.6002C78.1 73.6002 76.7 72.2001 76.3 70.3001H73.8C74.3 73.6001 76.8 75.8001 80.2 75.8001C84.9 75.8001 87.8 71.7001 87.8 64.3001C87.8 56.7001 84 54.5001 80.6 54.5001ZM80.6 56.7C83.2 56.7 85.1 58.9 85.1 61.4C85.1 63.8 83 66.1002 80.5 66.1002C77.9 66.1002 76.1 64 76.1 61.4C76.1 58.8 78 56.7 80.6 56.7Z" fill="#BEBEBE"/>
<path d="M89 59.3C89 60 89.5 60.6001 90.3 60.6001C91.1 60.6001 91.6 60 91.6 59.3V58.8999C91.6 58.1999 91.1 57.6001 90.3 57.6001C89.5 57.6001 89 58.1999 89 58.8999V59.3ZM85.8 55.6001C85.8 56.3001 86.2 56.8999 87 56.8999C87.9 56.8999 88.3 56.3001 88.3 55.6001V55.2C88.3 54.5 87.9 53.8999 87 53.8999C86.2 53.8999 85.8 54.5 85.8 55.2V55.6001ZM86 60.6001H86.7L91.2 54.1001H90.5L86 60.6001ZM89.7 59C89.7 58.6 89.8 58.2 90.3 58.2C90.8 58.2 90.9 58.6 90.9 59V59.3C90.9 59.7 90.7 60.1001 90.3 60.1001C89.8 60.1001 89.7 59.7 89.7 59.3V59ZM86.4 55.3C86.4 54.9 86.6 54.5 87 54.5C87.5 54.5 87.6 54.9 87.6 55.3V55.6001C87.6 56.0001 87.5 56.3999 87 56.3999C86.6 56.3999 86.4 56.0001 86.4 55.6001V55.3Z" fill="#BEBEBE"/>
<path d="M58 86.5C58 85.4 58.9 84.5 60 84.5H83C84.1 84.5 85 85.4 85 86.5V88C85 89.1 84.1 90 83 90H60C58.9 90 58 89.1 58 88V86.5Z" fill="#DCDCDC"/>
<path d="M23.5 154.5C18.2 154.5 14 150.3 14 145C14 139.7 18.2 135.5 23.5 135.5C28.8 135.5 33 139.7 33 145C33 150.3 28.8 154.5 23.5 154.5Z" fill="#F6F6F6"/>
<path d="M46 154.5C40.7 154.5 36.5 150.3 36.5 145C36.5 139.7 40.7 135.5 46 135.5C51.3 135.5 55.5 139.7 55.5 145C55.5 150.3 51.3 154.5 46 154.5Z" fill="#F6F6F6"/>
<path d="M68.5 154.5C63.2 154.5 59 150.3 59 145C59 139.7 63.2 135.5 68.5 135.5C73.8 135.5 78 139.7 78 145C78 150.3 73.8 154.5 68.5 154.5Z" fill="#F6F6F6"/>
<path d="M91 154.5C85.7 154.5 81.5 150.3 81.5 145C81.5 139.7 85.7 135.5 91 135.5C96.3 135.5 100.5 139.7 100.5 145C100.5 150.3 96.3 154.5 91 154.5Z" fill="#F6F6F6"/>
<path d="M113.5 154.5C108.2 154.5 104 150.3 104 145C104 139.7 108.2 135.5 113.5 135.5C118.8 135.5 123 139.7 123 145C123 150.3 118.8 154.5 113.5 154.5Z" fill="#F6F6F6"/>
<path d="M136 154.5C130.7 154.5 126.5 150.3 126.5 145C126.5 139.7 130.7 135.5 136 135.5C141.3 135.5 145.5 139.7 145.5 145C145.5 150.3 141.3 154.5 136 154.5Z" fill="#F6F6F6"/>
<path d="M14 175.8C14 174.7 14.9 173.8 16 173.8H57.3C58.4 173.8 59.3 174.7 59.3 175.8V183.1C59.3 184.2 58.4 185.1 57.3 185.1H16C14.9 185.1 14 184.2 14 183.1V175.8Z" fill="#EFEFEF"/>
<path d="M14.2 197.5C14.2 194.7 16.5 192.5 19.2 192.5H125.4C128.2 192.5 130.4 194.7 130.4 197.5V221.8C130.4 224.5 128.2 226.8 125.4 226.8H19.2C16.5 226.8 14.2 224.5 14.2 221.8V197.5Z" fill="white"/>
<path d="M31.4 218.6C26.1 218.6 21.8 214.4 21.8 209.1C21.8 203.8 26.1 199.5 31.4 199.5C36.7 199.5 40.9 203.8 40.9 209.1C40.9 214.4 36.7 218.6 31.4 218.6Z" fill="#F6F6F6"/>
<path d="M45.2 204.6C45.2 202.9 46.6 201.5 48.3 201.5H95.1C96.9 201.5 98.3 202.9 98.3 204.6C98.3 206.4 96.9 207.8 95.1 207.8H48.3C46.6 207.8 45.2 206.4 45.2 204.6Z" fill="#F6F6F6"/>
<path d="M45.7 214.3C45.7 213.1 46.6 212.1 47.8 212.1H54.9C56.1 212.1 57.1 213.1 57.1 214.3C57.1 215.5 56.1 216.5 54.9 216.5H47.8C46.6 216.5 45.7 215.5 45.7 214.3Z" fill="#F6F6F6"/>
<path d="M61.7 214.3C61.7 213.1 62.7 212.1 63.9 212.1H70.5C71.7 212.1 72.7 213.1 72.7 214.3C72.7 215.5 71.7 216.5 70.5 216.5H63.9C62.7 216.5 61.7 215.5 61.7 214.3Z" fill="#F6F6F6"/>
<path d="M14.2 239.1C14.2 236.3 16.5 234.1 19.2 234.1H125.4C128.2 234.1 130.4 236.3 130.4 239.1V263.4C130.4 266.1 128.2 268.4 125.4 268.4H19.2C16.5 268.4 14.2 266.1 14.2 263.4V239.1Z" fill="white"/>
<path d="M31.4 260.3C26.1 260.3 21.8 256 21.8 250.7C21.8 245.4 26.1 241.2 31.4 241.2C36.7 241.2 40.9 245.4 40.9 250.7C40.9 256 36.7 260.3 31.4 260.3Z" fill="#F6F6F6"/>
<path d="M45.2 246.3C45.2 244.5 46.6 243.1 48.3 243.1H95.1C96.9 243.1 98.3 244.5 98.3 246.3C98.3 248 96.9 249.4 95.1 249.4H48.3C46.6 249.4 45.2 248 45.2 246.3Z" fill="#F6F6F6"/>
<path d="M45.7 255.9C45.7 254.7 46.6 253.7 47.8 253.7H54.9C56.1 253.7 57.1 254.7 57.1 255.9C57.1 257.1 56.1 258.1 54.9 258.1H47.8C46.6 258.1 45.7 257.1 45.7 255.9Z" fill="#F6F6F6"/>
<path d="M61.7 255.9C61.7 254.7 62.7 253.7 63.9 253.7H70.5C71.7 253.7 72.7 254.7 72.7 255.9C72.7 257.1 71.7 258.1 70.5 258.1H63.9C62.7 258.1 61.7 257.1 61.7 255.9Z" fill="#F6F6F6"/>
</svg>
