<svg width="145" height="287" viewBox="0 0 145 287" fill="none" xmlns="http://www.w3.org/2000/svg">
<path opacity="0.2" d="M72.7 286.8C36.2 286.8 6.69995 284.7 6.69995 282C6.69995 279.4 36.2 277.2 72.7 277.2C109.2 277.2 138.7 279.4 138.7 282C138.7 284.7 109.2 286.8 72.7 286.8Z" fill="black"/>
<path d="M5.69995 21.1001C5.69995 11.5001 13.5 3.6001 23.2 3.6001H122.1C131.8 3.6001 139.6 11.5001 139.6 21.1001V264.7C139.6 274.4 131.8 282.2 122.1 282.2H23.2C13.5 282.2 5.69995 274.4 5.69995 264.7V21.1001Z" fill="white" stroke="#B8B8B8" stroke-width="6"/>
<path d="M3.30005 42.3999C3.30005 40.7999 4.59995 39.6001 6.19995 39.6001V49.6001C4.59995 49.6001 3.30005 48.3 3.30005 46.7V42.3999Z" fill="white" stroke="#B8B8B8" stroke-width="6"/>
<path d="M3.30005 64.2C3.30005 62.6 4.59995 61.3 6.19995 61.3V80.5C4.59995 80.5 3.30005 79.2001 3.30005 77.6001V64.2Z" fill="white" stroke="#B8B8B8" stroke-width="6"/>
<path d="M3.30005 89.5C3.30005 87.9 4.59995 86.6001 6.19995 86.6001V105.8C4.59995 105.8 3.30005 104.5 3.30005 102.9V89.5Z" fill="white" stroke="#B8B8B8" stroke-width="6"/>
<path d="M139.1 67.8999C140.7 67.8999 142 69.2 142 70.7V96.1001C142 97.7001 140.7 99 139.1 99V67.8999Z" fill="white" stroke="#B8B8B8" stroke-width="6"/>
<path d="M73.3 269.5C66.1 269.5 60.3 263.8 60.3 256.8C60.3 249.7 66.1 244 73.3 244C80.5 244 86.3 249.7 86.3 256.8C86.3 263.8 80.5 269.5 73.3 269.5Z" fill="white" stroke="#D9D9D9" stroke-width="2"/>
<path d="M69.6 256.9H77.1" stroke="#707070" stroke-width="3" stroke-linecap="round"/>
<path d="M73.4 253.2V260.6" stroke="#707070" stroke-width="3" stroke-linecap="round"/>
<path d="M47.8 263.5C44.2 263.5 41.3 260.6 41.3 257C41.3 253.4 44.2 250.5 47.8 250.5C51.4 250.5 54.3 253.4 54.3 257C54.3 260.6 51.4 263.5 47.8 263.5Z" fill="#E6E6E6"/>
<path d="M118.5 263.5C115.1 263.5 112.3 260.6 112.3 257C112.3 253.4 115.1 250.5 118.5 250.5C122 250.5 124.8 253.4 124.8 257C124.8 260.6 122 263.5 118.5 263.5Z" fill="#E6E6E6"/>
<path d="M28.3 263.5C24.7 263.5 21.8 260.6 21.8 257C21.8 253.4 24.7 250.5 28.3 250.5C31.9 250.5 34.8 253.4 34.8 257C34.8 260.6 31.9 263.5 28.3 263.5Z" fill="#E6E6E6"/>
<path d="M99 263.5C95.6 263.5 92.8 260.6 92.8 257C92.8 253.4 95.6 250.5 99 250.5C102.5 250.5 105.3 253.4 105.3 257C105.3 260.6 102.5 263.5 99 263.5Z" fill="#E6E6E6"/>
<path d="M16.8 212.5C16.8 211.1 17.9 210 19.3 210H126.8C128.1 210 129.3 211.1 129.3 212.5V228.5C129.3 229.9 128.1 231 126.8 231H19.3C17.9 231 16.8 229.9 16.8 228.5V212.5Z" fill="#F6F6F6"/>
<path d="M21.8 215.5C21.8 214.7 22.4 214 23.3 214H33.3C34.1 214 34.8 214.7 34.8 215.5V225C34.8 225.8 34.1 226.5 33.3 226.5H23.3C22.4 226.5 21.8 225.8 21.8 225V215.5Z" fill="white"/>
<path d="M41.3 216C41.3 215.4 41.7 215 42.3 215H74.3C74.8 215 75.3 215.4 75.3 216V217.5C75.3 218.1 74.8 218.5 74.3 218.5H42.3C41.7 218.5 41.3 218.1 41.3 217.5V216Z" fill="white"/>
<path d="M41.3 223.5C41.3 222.9 41.7 222.5 42.3 222.5H109.3C109.8 222.5 110.3 222.9 110.3 223.5V224.5C110.3 225.1 109.8 225.5 109.3 225.5H42.3C41.7 225.5 41.3 225.1 41.3 224.5V223.5Z" fill="white"/>
<path d="M16.8 187C16.8 185.6 17.9 184.5 19.3 184.5H126.8C128.1 184.5 129.3 185.6 129.3 187V203C129.3 204.4 128.1 205.5 126.8 205.5H19.3C17.9 205.5 16.8 204.4 16.8 203V187Z" fill="#F6F6F6"/>
<path d="M21.8 189.5C21.8 188.7 22.4 188 23.3 188H33.3C34.1 188 34.8 188.7 34.8 189.5V199.5C34.8 200.3 34.1 201 33.3 201H23.3C22.4 201 21.8 200.3 21.8 199.5V189.5Z" fill="white"/>
<path d="M41.3 190.5C41.3 189.9 41.7 189.5 42.3 189.5H74.3C74.8 189.5 75.3 189.9 75.3 190.5V191.5C75.3 192.1 74.8 192.5 74.3 192.5H42.3C41.7 192.5 41.3 192.1 41.3 191.5V190.5Z" fill="white"/>
<path d="M41.3 198C41.3 197.4 41.7 197 42.3 197H109.3C109.8 197 110.3 197.4 110.3 198V199C110.3 199.6 109.8 200 109.3 200H42.3C41.7 200 41.3 199.6 41.3 199V198Z" fill="white"/>
<path d="M16.8 161C16.8 159.6 17.9 158.5 19.3 158.5H126.8C128.1 158.5 129.3 159.6 129.3 161V177.5C129.3 178.9 128.1 180 126.8 180H19.3C17.9 180 16.8 178.9 16.8 177.5V161Z" fill="#F6F6F6"/>
<path d="M21.8 164C21.8 163.2 22.4 162.5 23.3 162.5H33.3C34.1 162.5 34.8 163.2 34.8 164V174C34.8 174.8 34.1 175.5 33.3 175.5H23.3C22.4 175.5 21.8 174.8 21.8 174V164Z" fill="white"/>
<path d="M41.3 164.5C41.3 163.9 41.7 163.5 42.3 163.5H74.3C74.8 163.5 75.3 163.9 75.3 164.5V166C75.3 166.6 74.8 167 74.3 167H42.3C41.7 167 41.3 166.6 41.3 166V164.5Z" fill="white"/>
<path d="M41.3 172.5C41.3 171.9 41.7 171.5 42.3 171.5H109.3C109.8 171.5 110.3 171.9 110.3 172.5V173.5C110.3 174.1 109.8 174.5 109.3 174.5H42.3C41.7 174.5 41.3 174.1 41.3 173.5V172.5Z" fill="white"/>
<path d="M16.8 150.5C16.8 149.9 17.2 149.5 17.8 149.5H49.8C50.3 149.5 50.8 149.9 50.8 150.5V153.5C50.8 154.1 50.3 154.5 49.8 154.5H17.8C17.2 154.5 16.8 154.1 16.8 153.5V150.5Z" fill="#F6F6F6"/>
<path d="M17.8 25C17.8 22 20.2 19.5 23.3 19.5H123.3C126.3 19.5 128.8 22 128.8 25V99C128.8 102 126.3 104.5 123.3 104.5H23.3C20.2 104.5 17.8 102 17.8 99V25Z" fill="#F6F6F6"/>
<path d="M22.3 116.5C22.3 114.6 23.8 113 25.8 113H120.8C122.7 113 124.3 114.6 124.3 116.5V135C124.3 136.9 122.7 138.5 120.8 138.5H25.8C23.8 138.5 22.3 136.9 22.3 135V116.5Z" fill="#F6F6F6"/>
<path d="M35.5 133.5C31.2 133.5 27.8 130 27.8 125.8C27.8 121.5 31.2 118 35.5 118C39.8 118 43.3 121.5 43.3 125.8C43.3 130 39.8 133.5 35.5 133.5Z" fill="white"/>
<path d="M60.3 133.5C55.8 133.5 52.3 130 52.3 125.8C52.3 121.5 55.8 118 60.3 118C64.7 118 68.3 121.5 68.3 125.8C68.3 130 64.7 133.5 60.3 133.5Z" fill="white"/>
<path d="M85.5 133.5C81.2 133.5 77.8 130 77.8 125.8C77.8 121.5 81.2 118 85.5 118C89.8 118 93.3 121.5 93.3 125.8C93.3 130 89.8 133.5 85.5 133.5Z" fill="white"/>
<path d="M110.5 133.5C106.2 133.5 102.8 130 102.8 125.8C102.8 121.5 106.2 118 110.5 118C114.8 118 118.3 121.5 118.3 125.8C118.3 130 114.8 133.5 110.5 133.5Z" fill="white"/>
<path d="M46.8 86C46.8 84.9 47.7 84 48.8 84H97.8C98.9 84 99.8 84.9 99.8 86V86.5C99.8 87.6 98.9 88.5 97.8 88.5H48.8C47.7 88.5 46.8 87.6 46.8 86.5V86Z" fill="#ECECEC"/>
<path d="M55.8 74.5C55.8 73.9 56.2 73.5 56.8 73.5H89.8C90.3 73.5 90.8 73.9 90.8 74.5V78C90.8 78.6 90.3 79 89.8 79H56.8C56.2 79 55.8 78.6 55.8 78V74.5Z" fill="#ECECEC"/>
<path d="M59.3 39.5C59.3 37.8 60.6 36.5 62.3 36.5H84.8C86.4 36.5 87.8 37.8 87.8 39.5V62C87.8 63.7 86.4 65 84.8 65H62.3C60.6 65 59.3 63.7 59.3 62V39.5Z" fill="white" stroke="#ECECEC" stroke-width="6"/>
</svg>
