<svg width="147" height="289" viewBox="0 0 147 289" fill="none" xmlns="http://www.w3.org/2000/svg">
<path opacity="0.2" d="M73.7 289C36.9 289 7.19995 286.8 7.19995 284.2C7.19995 281.5 36.9 279.3 73.7 279.3C110.5 279.3 140.2 281.5 140.2 284.2C140.2 286.8 110.5 289 73.7 289Z" fill="black"/>
<path d="M6.19995 21.1001C6.19995 11.5001 14 3.6001 23.7 3.6001H123.6C133.3 3.6001 141.1 11.5001 141.1 21.1001V266.9C141.1 276.5 133.3 284.4 123.6 284.4H23.7C14 284.4 6.19995 276.5 6.19995 266.9V21.1001Z" fill="white" stroke="#B8B8B8" stroke-width="6"/>
<path d="M3.80005 42.7C3.80005 41.1 4.99998 39.8 6.59998 39.8V50C4.99998 50 3.80005 48.7001 3.80005 47.1001V42.7Z" fill="white" stroke="#B8B8B8" stroke-width="6"/>
<path d="M3.80005 64.6001C3.80005 63.0001 4.99998 61.7 6.59998 61.7V81C4.99998 81 3.80005 79.7001 3.80005 78.1001V64.6001Z" fill="white" stroke="#B8B8B8" stroke-width="6"/>
<path d="M3.80005 90.2C3.80005 88.6 4.99998 87.3 6.59998 87.3V106.6C4.99998 106.6 3.80005 105.3 3.80005 103.7V90.2Z" fill="white" stroke="#B8B8B8" stroke-width="6"/>
<path d="M140.6 68.3999C142.2 68.3999 143.5 69.7 143.5 71.3V96.8C143.5 98.4 142.2 99.7 140.6 99.7V68.3999Z" fill="white" stroke="#474757" stroke-width="6"/>
<path d="M12.9 122.2C12.9 119.4 15.2 117.2 17.9 117.2H129C131.8 117.2 134 119.4 134 122.2V146C134 148.8 131.8 151 129 151H17.9C15.2 151 12.9 148.8 12.9 146V122.2Z" fill="white"/>
<path d="M30.8 144C25.3 144 20.8 139.6 20.8 134.1C20.8 128.6 25.3 124.1 30.8 124.1C36.3 124.1 40.8 128.6 40.8 134.1C40.8 139.6 36.3 144 30.8 144Z" fill="#E8E8E8"/>
<path d="M48 129.2C48 127.5 49.3 126.1 51 126.1H100.2C101.9 126.1 103.3 127.5 103.3 129.2C103.3 130.9 101.9 132.3 100.2 132.3H51C49.3 132.3 48 130.9 48 129.2Z" fill="#EBEBEB"/>
<path d="M48.5 138.7C48.5 137.5 49.4 136.5 50.6 136.5H58.2C59.4 136.5 60.4 137.5 60.4 138.7C60.4 139.9 59.4 140.8 58.2 140.8H50.6C49.4 140.8 48.5 139.9 48.5 138.7Z" fill="#EBEBEB"/>
<path d="M65.1 138.7C65.1 137.5 66.1 136.5 67.3 136.5H74.4C75.6 136.5 76.6 137.5 76.6 138.7C76.6 139.9 75.6 140.8 74.4 140.8H67.3C66.1 140.8 65.1 139.9 65.1 138.7Z" fill="#EBEBEB"/>
<path d="M12.9 161.3C12.9 158.6 15.2 156.3 17.9 156.3H129C131.8 156.3 134 158.6 134 161.3V185.2C134 187.9 131.8 190.2 129 190.2H17.9C15.2 190.2 12.9 187.9 12.9 185.2V161.3Z" fill="white"/>
<path d="M30.8 183.2C25.3 183.2 20.8 178.8 20.8 173.3C20.8 167.8 25.3 163.3 30.8 163.3C36.3 163.3 40.8 167.8 40.8 173.3C40.8 178.8 36.3 183.2 30.8 183.2Z" fill="#E8E8E8"/>
<path d="M48 168.3C48 166.6 49.3 165.3 51 165.3H100.2C101.9 165.3 103.3 166.6 103.3 168.3C103.3 170 101.9 171.4 100.2 171.4H51C49.3 171.4 48 170 48 168.3Z" fill="#EBEBEB"/>
<path d="M48.5 177.9C48.5 176.7 49.4 175.7 50.6 175.7H58.2C59.4 175.7 60.4 176.7 60.4 177.9C60.4 179.1 59.4 180 58.2 180H50.6C49.4 180 48.5 179.1 48.5 177.9Z" fill="#EBEBEB"/>
<path d="M65.1 177.9C65.1 176.7 66.1 175.7 67.3 175.7H74.4C75.6 175.7 76.6 176.7 76.6 177.9C76.6 179.1 75.6 180 74.4 180H67.3C66.1 180 65.1 179.1 65.1 177.9Z" fill="#EBEBEB"/>
<path d="M12.9 200.5C12.9 197.7 15.2 195.5 17.9 195.5H129C131.8 195.5 134 197.7 134 200.5V224.4C134 227.1 131.8 229.4 129 229.4H17.9C15.2 229.4 12.9 227.1 12.9 224.4V200.5Z" fill="white"/>
<path d="M30.8 222.4C25.3 222.4 20.8 217.9 20.8 212.4C20.8 206.9 25.3 202.5 30.8 202.5C36.3 202.5 40.8 206.9 40.8 212.4C40.8 217.9 36.3 222.4 30.8 222.4Z" fill="#E8E8E8"/>
<path d="M48 207.5C48 205.8 49.3 204.4 51 204.4H100.2C101.9 204.4 103.3 205.8 103.3 207.5C103.3 209.2 101.9 210.6 100.2 210.6H51C49.3 210.6 48 209.2 48 207.5Z" fill="#EBEBEB"/>
<path d="M48.5 217C48.5 215.9 49.4 214.9 50.6 214.9H58.2C59.4 214.9 60.4 215.9 60.4 217C60.4 218.2 59.4 219.2 58.2 219.2H50.6C49.4 219.2 48.5 218.2 48.5 217Z" fill="#EBEBEB"/>
<path d="M65.1 217C65.1 215.9 66.1 214.9 67.3 214.9H74.4C75.6 214.9 76.6 215.9 76.6 217C76.6 218.2 75.6 219.2 74.4 219.2H67.3C66.1 219.2 65.1 218.2 65.1 217Z" fill="#EBEBEB"/>
<path d="M12.9 240.6C12.9 237.8 15.2 235.6 17.9 235.6H129C131.8 235.6 134 237.8 134 240.6V264.4C134 267.2 131.8 269.4 129 269.4H17.9C15.2 269.4 12.9 267.2 12.9 264.4V240.6Z" fill="white"/>
<path d="M30.8 262.4C25.3 262.4 20.8 258 20.8 252.5C20.8 247 25.3 242.5 30.8 242.5C36.3 242.5 40.8 247 40.8 252.5C40.8 258 36.3 262.4 30.8 262.4Z" fill="#E8E8E8"/>
<path d="M48 247.6C48 245.9 49.3 244.5 51 244.5H100.2C101.9 244.5 103.3 245.9 103.3 247.6C103.3 249.3 101.9 250.7 100.2 250.7H51C49.3 250.7 48 249.3 48 247.6Z" fill="#EBEBEB"/>
<path d="M48.5 257.1C48.5 255.9 49.4 255 50.6 255H58.2C59.4 255 60.4 255.9 60.4 257.1C60.4 258.3 59.4 259.2 58.2 259.2H50.6C49.4 259.2 48.5 258.3 48.5 257.1Z" fill="#EBEBEB"/>
<path d="M65.1 257.1C65.1 255.9 66.1 255 67.3 255H74.4C75.6 255 76.6 255.9 76.6 257.1C76.6 258.3 75.6 259.2 74.4 259.2H67.3C66.1 259.2 65.1 258.3 65.1 257.1Z" fill="#EBEBEB"/>
<path d="M14.2 103.1C14.2 102 15.1 101.1 16.2 101.1H53.2C54.2999 101.1 55.2 102 55.2 103.1V108.8C55.2 109.9 54.2999 110.8 53.2 110.8H16.2C15.1 110.8 14.2 109.9 14.2 108.8V103.1Z" fill="#EFEFEF"/>
<path d="M93.5 76.2C93.5 75 94.5 74 95.7 74H109.2C110.4 74 111.4 75 111.4 76.2C111.4 77.4 110.4 78.3999 109.2 78.3999H95.7C94.5 78.3999 93.5 77.4 93.5 76.2Z" fill="#EFEFEF"/>
<path d="M12.9 33.2C12.9 30.4 15.2 28.2 17.9 28.2H128.6C131.3 28.2 133.6 30.4 133.6 33.2V86.3999C133.6 89.1999 131.3 91.3999 128.6 91.3999H17.9C15.2 91.3999 12.9 89.1999 12.9 86.3999V33.2Z" fill="#F6F6F6"/>
<path d="M35.1 48.6001C26.7 48.6001 19.9 41.7999 19.9 33.3999C19.9 24.9999 26.7 18.2 35.1 18.2C43.5 18.2 50.3 24.9999 50.3 33.3999C50.3 41.7999 43.5 48.6001 35.1 48.6001Z" fill="white" stroke="#E4E4E4" stroke-width="2"/>
<path d="M57.3 43.8999C57.3 41.0999 59.6 38.8 62.4 38.8H113.1C115.9 38.8 118.1 41.0999 118.1 43.8999C118.1 46.6999 115.9 48.8999 113.1 48.8999H62.4C59.6 48.8999 57.3 46.6999 57.3 43.8999Z" fill="#EFEFEF"/>
<path d="M23.1 68.7C23.1 62.6 28 57.6001 34.2 57.6001C40.3 57.6001 45.3 62.6 45.3 68.7C45.3 74.9 40.3 79.8 34.2 79.8C28 79.8 23.1 74.9 23.1 68.7Z" stroke="#707070" stroke-width="8"/>
<path d="M46.3 61.6999C50.1 80.4999 34.2 81.3999 34.2 81.3999V69.3C34.2 69.3 46.3 61.5999 46.3 61.6999Z" fill="#F6F6F6"/>
<path d="M48.2 67.3C48.2 65.4 49.7 63.8999 51.5 63.8999H79C80.9 63.8999 82.4 65.4 82.4 67.3C82.4 69.1 80.9 70.7 79 70.7H51.5C49.7 70.7 48.2 69.1 48.2 67.3Z" fill="#EFEFEF"/>
<path d="M93.5 67.3C93.5 65.4 95 63.8999 96.9 63.8999H119.6C121.5 63.8999 123 65.4 123 67.3C123 69.1 121.5 70.7 119.6 70.7H96.9C95 70.7 93.5 69.1 93.5 67.3Z" fill="#EFEFEF"/>
<path d="M48.2 76.2C48.2 75 49.1 74 50.3 74H63.8C65 74 66 75 66 76.2C66 77.4 65 78.3999 63.8 78.3999H50.3C49.1 78.3999 48.2 77.4 48.2 76.2Z" fill="#EFEFEF"/>
<path d="M88 57.3999V84.8999" stroke="#E8E8E8"/>
</svg>
