<svg width="29" height="22" viewBox="0 0 29 22" fill="none" xmlns="http://www.w3.org/2000/svg">
<path fill-rule="evenodd" clip-rule="evenodd" d="M26 15.7L27.1999 18.8999L23.5 18C21.7 19.6 19 19.7 18.3 19.7C16.1 19.7 14.2 19 12.6 17.8C11.9 18.5 11 19 10.1 19.3C9.49997 19.6 7.69997 20.1 6.09997 19.5L3.30004 20.7L3.59997 18.2C2.59997 17.4 1.80002 16.4 1.40002 15.2C0.200017 11.6 1.99997 7.6999 5.59997 6.3999C6.79997 5.9999 8.19999 5.90005 9.49999 6.30005C10.9 2.90005 14.2999 0.5 18.1999 0.5C23.4999 0.5 27.8 4.8 27.8 10C27.8 12.1 27.2 14.1 26 15.7ZM12.1 17.3999C9.99997 15.6999 8.69994 13.0001 8.69994 10.1001C8.69994 9.0001 8.89994 7.8999 9.19994 6.8999C8.09994 6.5999 6.90004 6.6001 5.80004 7.1001C2.50004 8.2001 0.799993 11.7 1.99999 15C2.39999 16.1 3.09999 17.1 3.99999 17.8L4.19994 18L3.99999 19.7L6.09997 18.8L6.30004 18.8999C7.40004 19.2999 8.90002 19.1 9.90002 18.7C10.7 18.4333 11.4333 17.9999 12.1 17.3999ZM25.3 15.6001L25.4 15.5C26.6 13.9 27.1999 12 27.1999 10C27.1999 5.1 23.2 1.1001 18.3 1.1001C13.3 1.1001 9.30004 5.1 9.30004 10C9.30004 15 13.2999 19 18.1999 19C19.7999 19 21.9 18.6 23.3 17.5L23.4 17.3L26.3 18L25.3 15.6001Z" fill="white" stroke="white"/>
<path d="M5.69995 10.2H8.19995V10.8H5.69995V10.2Z" fill="white"/>
<path d="M4.69995 12.6001H8.59998V13.2H4.69995V12.6001Z" fill="white"/>
<path d="M5.69995 15.1001H9.59998V15.7H5.69995V15.1001Z" fill="white"/>
<path d="M14.2 11.1001L14.5 11.6001L12.2 12.8999L12.6 10.3999L10.8 8.69995L13.3 8.30005L14.4 6L15.6 8.3999L15 8.69995L14.4 7.5L13.7 8.8999L12.2 9.1001L13.3 10.2L13 11.7L14.2 11.1001Z" fill="white"/>
<path fill-rule="evenodd" clip-rule="evenodd" d="M20.6 11.8999L21.2 15.1001L18.2 13.6001L15.3 15.1001L15.8 11.8999L13.4 9.5L16.7 9.1001L18.2 6.1001L19.7 9.1001L23 9.5L20.6 11.8999ZM20.4 14L20 11.7L21.7 10L19.3 9.69995L18.3 7.5L17.2 9.69995L14.8 10L16.6 11.7L16.1 14L18.3 12.8999L20.4 14Z" fill="white"/>
<path d="M23.9 10.3999L24.3 12.8999L21.9 11.6001L22.2 11.1001L23.5 11.7L23.2 10.2L24.3 9.1001L22.8 8.8999L22.1 7.5L21.5 8.69995L20.9 8.3999L22.1 6L23.2 8.30005L25.7 8.69995L23.9 10.3999Z" fill="white"/>
</svg>
