<svg width="21" height="21" viewBox="0 0 21 21" fill="none" xmlns="http://www.w3.org/2000/svg">
<path fill-rule="evenodd" clip-rule="evenodd" d="M20.3 20.8H18.8C18.8 16.2 15 12.3999 10.3 12.3999C5.60005 12.3999 1.80005 16.2 1.80005 20.8H0.199951C0.199951 18.2 1.29995 15.6 3.19995 13.7C4.29995 12.6 5.6 11.8 7 11.3C5.5 10.3 4.5 8.5001 4.5 6.6001C4.5 3.3001 7.10005 0.699951 10.3 0.699951C13.5 0.699951 16.1 3.3001 16.1 6.6001C16.1 8.5001 15.1 10.3 13.6 11.3C15 11.8 16.3 12.6 17.4 13.7C19.3 15.6 20.3 18.2 20.3 20.8ZM14.5 6.6001C14.5 4.2001 12.6 2.30005 10.3 2.30005C8.00005 2.30005 6.09998 4.2001 6.09998 6.6001C6.09998 8.9001 8.00005 10.8 10.3 10.8C12.6 10.8 14.5 8.9001 14.5 6.6001Z" fill="white"/>
</svg>
