<svg width="18" height="19" viewBox="0 0 18 19" fill="none" xmlns="http://www.w3.org/2000/svg">
<path fill-rule="evenodd" clip-rule="evenodd" d="M17.5 14V14.8C17.5 15 17.4 15.1001 17.2 15.1001L16.8 15.2C16.6 15.2 16.4334 15.3 16.3 15.5C16.2334 15.7 16.2667 15.9001 16.4 16.1001L16.6 16.5C16.7 16.6 16.7 16.7999 16.6 16.8999L16 17.5C15.9 17.6 15.7 17.6 15.6 17.5L15.3 17.3C15.1 17.2 14.9 17.2 14.7 17.3C14.5 17.3 14.4 17.5 14.4 17.7L14.3 18C14.3 18.2 14.2 18.3 14 18.3H13.2C13 18.3 12.9 18.2001 12.9 18.1001L12.8 17.6001C12.7334 17.4001 12.6 17.2666 12.4 17.2C12.2 17.1333 12 17.1333 11.8 17.2L11.4 17.5C11.3 17.6 11.1 17.6 11 17.5L10.4 16.8999C10.3 16.7999 10.3 16.6 10.4 16.5L10.7 16.1001C10.7666 15.9001 10.7666 15.7 10.7 15.5C10.6333 15.3 10.4666 15.2 10.2 15.2L9.80005 15.1001C9.60005 15.1001 9.5 15 9.5 14.8V14C9.5 13.8 9.60005 13.7 9.80005 13.7L10.2 13.6001C10.4 13.5334 10.5666 13.4 10.7 13.2C10.7666 13 10.7333 12.8001 10.6 12.6001L10.3 12.2C10.2 12.1 10.2 12 10.3 11.8L10.9 11.2C11 11.1 11.2 11.1 11.3 11.2L11.8 11.5C12 11.6333 12.2 11.6668 12.4 11.6001C12.6 11.5334 12.7 11.3668 12.7 11.1001L12.9 10.6001C12.9 10.4001 13 10.3 13.2 10.3H14C14.2 10.3 14.3 10.4001 14.3 10.6001L14.4 11.1001C14.4 11.3001 14.5 11.4333 14.7 11.5C14.9 11.5667 15.1 11.5667 15.3 11.5L15.7 11.2C15.8 11.1 16 11.1 16.1 11.2L16.7 11.8C16.8 12 16.8 12.1 16.7 12.2L16.4 12.6001C16.2667 12.8001 16.2667 13 16.4 13.2C16.4667 13.4 16.6 13.5334 16.8 13.6001L17.3 13.7C17.4 13.7 17.5 13.8 17.5 14ZM16.9 14.2H16.7C16.3 14.1 15.9 13.7999 15.8 13.3999C15.6 12.9999 15.7 12.6 15.9 12.3L16.1 12.1001L15.8 11.8999L15.7 12C15.3 12.2 14.9 12.2001 14.5 12.1001C14.1 11.9001 13.8 11.6001 13.8 11.1001L13.7 10.8999H13.4L13.3 11.3C13.3 11.7 13 12 12.6 12.2C12.2 12.3 11.8 12.3 11.5 12L11.2 11.8999L11 12.1001L11.1 12.3C11.3 12.6 11.4 12.9999 11.2 13.3999C11.1 13.7999 10.7 14.1 10.3 14.2H10.1V14.5L10.3 14.6001C10.8 14.6001 11.1 14.9 11.3 15.3C11.4 15.7 11.4 16.1 11.2 16.5L11.1 16.6001L11.3 16.8999L11.5 16.7C11.8 16.5 12.2 16.4001 12.6 16.6001C13 16.7001 13.3 17.1 13.4 17.5V17.7H13.7L13.8 17.6001C13.8 17.2001 14.1 16.9 14.5 16.7C14.9 16.5 15.3 16.6 15.7 16.8V16.8999L16 16.6001L15.9 16.5C15.6 16.1 15.6 15.7 15.8 15.3C15.9 14.9 16.3 14.6001 16.7 14.6001L16.9 14.5V14.2Z" fill="#00D793"/>
<path fill-rule="evenodd" clip-rule="evenodd" d="M15 14.3C15 15.2 14.4 15.8999 13.5 15.8999C12.7 15.8999 12 15.2 12 14.3C12 13.5 12.7 12.8 13.5 12.8C14.4 12.8 15 13.5 15 14.3ZM14.4 14.3C14.4 13.8 14 13.3999 13.5 13.3999C13 13.3999 12.6 13.8 12.6 14.3C12.6 14.8 13 15.2 13.5 15.2C14 15.2 14.4 14.8 14.4 14.3Z" fill="#00D793"/>
<path d="M8.80005 17.1001C8.80005 17.3001 8.60002 17.3999 8.40002 17.3999C8.20002 17.3999 8.00005 17.3999 7.80005 17.3999C7.73338 17.3999 7.69995 17.3999 7.69995 17.3999C7.43328 17.3332 7.2 17.3 7 17.3C7 17.3 6.96669 17.3 6.90002 17.3C6.23336 17.1667 5.56669 16.9334 4.90002 16.6001C4.70002 16.4668 4.50005 16.3667 4.30005 16.3C4.23338 16.3 4.19995 16.2666 4.19995 16.2C3.99995 16.1333 3.83328 16.0332 3.69995 15.8999C3.63328 15.8332 3.56667 15.8 3.5 15.8C3.36667 15.6667 3.23331 15.5332 3.09998 15.3999C3.03331 15.3999 3 15.3999 3 15.3999L2.69995 15.2C1.09995 13.6 0 11.3999 0 8.8999C0 4.2999 3.80002 0.5 8.40002 0.5C13.1 0.5 16.9 4.2999 16.9 8.8999C16.9 9.0999 16.8 9.30005 16.6 9.30005C16.4 9.30005 16.3 9.0999 16.3 8.8999C16.3 4.5999 12.8 1.1001 8.40002 1.1001C4.10002 1.1001 0.599976 4.5999 0.599976 8.8999C0.599976 11.2999 1.59995 13.3 3.19995 14.8C3.26662 14.7334 3.33336 14.6668 3.40002 14.6001L5.90002 13.3C6.10002 13.2 6.19995 12.9 6.19995 12.7V11.8C5.99995 11.6 5.50005 10.8 5.30005 9.80005C5.00005 9.60005 4.90002 9.3 4.90002 9V7.8999C4.90002 7.63324 4.96664 7.39995 5.09998 7.19995V5.69995C5.09998 5.59995 5.09995 4.6999 5.69995 3.8999C6.29995 3.2999 7.20002 3 8.40002 3C9.66669 3 10.6 3.2999 11.2 3.8999C11.8 4.6999 11.8 5.59995 11.7 5.69995V7.19995C11.9 7.39995 12 7.63324 12 7.8999V9C12 9.5 11.7 9.9 11.2 10C11.1 10.1 10.9 10 10.8 9.80005C10.8 9.70005 10.9 9.5 11 9.5C11.3 9.4 11.4 9.2 11.4 9V7.8999C11.4 7.76657 11.3333 7.63333 11.2 7.5L11.1 7.3999V5.69995C11.1 5.69995 11.2 4.90005 10.7 4.30005C10.2333 3.83338 9.46669 3.6001 8.40002 3.6001C7.40002 3.6001 6.66662 3.83338 6.19995 4.30005C5.69995 4.90005 5.80005 5.69995 5.80005 5.69995V7.3999L5.69995 7.5C5.56662 7.63333 5.5 7.76657 5.5 7.8999V9C5.5 9.13333 5.56662 9.26657 5.69995 9.3999L5.80005 9.5L5.90002 9.6001C6.10002 10.7001 6.80005 11.5 6.80005 11.5V11.6001V12.7C6.80005 13.2 6.59995 13.6 6.19995 13.8L3.69995 15.2C3.69995 15.2 3.73338 15.2 3.80005 15.2C3.93338 15.3333 4.06662 15.4333 4.19995 15.5C4.19995 15.5 4.23338 15.5334 4.30005 15.6001C4.43338 15.6668 4.60005 15.7334 4.80005 15.8C4.80005 15.8667 4.80005 15.8999 4.80005 15.8999C5.00005 15.9666 5.16672 16.0334 5.30005 16.1001C5.36672 16.1001 5.40002 16.1001 5.40002 16.1001C5.53336 16.2334 5.70002 16.3332 5.90002 16.3999C5.90002 16.3999 5.93333 16.3999 6 16.3999C6.33333 16.5332 6.73328 16.6333 7.19995 16.7C7.39995 16.7 7.60005 16.7 7.80005 16.7C7.80005 16.7 7.83336 16.7 7.90002 16.7C8.10002 16.7666 8.26669 16.8 8.40002 16.8C8.60002 16.8 8.80005 16.9001 8.80005 17.1001Z" fill="#00D793"/>
</svg>
